<?xml version="1.0" encoding="UTF-8" standalone="no"?>
<!-- Created with Inkscape (http://www.inkscape.org/) -->

<svg
   width="30.514393mm"
   height="3.9131818mm"
   viewBox="0 0 30.514393 3.9131818"
   version="1.1"
   id="svg1"
   xml:space="preserve"
   xmlns:inkscape="http://www.inkscape.org/namespaces/inkscape"
   xmlns:sodipodi="http://sodipodi.sourceforge.net/DTD/sodipodi-0.dtd"
   xmlns="http://www.w3.org/2000/svg"
   xmlns:svg="http://www.w3.org/2000/svg"><sodipodi:namedview
     id="namedview1"
     pagecolor="#505050"
     bordercolor="#eeeeee"
     borderopacity="1"
     inkscape:showpageshadow="0"
     inkscape:pageopacity="0"
     inkscape:pagecheckerboard="0"
     inkscape:deskcolor="#505050"
     inkscape:document-units="mm" /><defs
     id="defs1"><style
       id="style1">
      .cls-1 {
        fill: none;
      }

      .cls-1, .cls-2, .cls-3 {
        stroke-width: 0px;
      }

      .cls-4 {
        clip-path: url(#clippath);
      }

      .cls-2 {
        fill: #fff;
      }

      .cls-3 {
        fill: #2af598;
      }
    </style><clipPath
       id="clippath"><rect
         class="cls-1"
         width="115.33"
         height="14.79"
         id="rect1"
         x="0"
         y="0" /></clipPath></defs><g
     inkscape:label="Ebene 1"
     inkscape:groupmode="layer"
     id="layer1"
     transform="translate(-89.587824,-146.54342)"><g
       id="g1"
       transform="matrix(0.26458333,0,0,0.26458333,89.587821,146.54341)"
       inkscape:export-filename="header_img.png"
       inkscape:export-xdpi="332.95999"
       inkscape:export-ydpi="332.95999"><rect
         class="cls-3"
         y="0.2"
         width="2.1700001"
         height="14.38"
         id="rect2"
         x="0" /><g
         class="cls-4"
         clip-path="url(#clippath)"
         id="g4"><path
           class="cls-3"
           d="M 24.6,14.57 V 0.2 h 5.12 c 1.12,0 2.05,0.2 2.78,0.61 0.73,0.41 1.28,0.96 1.65,1.67 0.37,0.7 0.55,1.5 0.55,2.38 0,0.88 -0.18,1.68 -0.55,2.38 -0.37,0.71 -0.92,1.26 -1.66,1.67 -0.74,0.41 -1.66,0.61 -2.78,0.61 H 26.19 V 7.68 h 3.33 c 0.71,0 1.28,-0.12 1.72,-0.37 C 31.68,7.06 32,6.73 32.21,6.3 32.42,5.87 32.52,5.39 32.52,4.85 32.52,4.31 32.42,3.83 32.21,3.4 32,2.98 31.68,2.65 31.24,2.41 30.8,2.17 30.22,2.05 29.5,2.05 h -2.72 v 12.52 h -2.17 z"
           id="path2" /><path
           class="cls-3"
           d="M 47.57,7.38 C 47.57,6.21 47.38,5.22 47.01,4.42 46.63,3.62 46.12,3.01 45.47,2.59 44.82,2.18 44.08,1.97 43.25,1.97 c -0.83,0 -1.57,0.21 -2.22,0.62 -0.65,0.41 -1.16,1.02 -1.54,1.83 -0.38,0.8 -0.56,1.79 -0.56,2.96 0,1.17 0.19,2.16 0.56,2.96 0.38,0.8 0.89,1.41 1.54,1.82 0.65,0.41 1.39,0.62 2.22,0.62 0.83,0 1.56,-0.21 2.22,-0.62 0.66,-0.41 1.17,-1.02 1.54,-1.82 0.38,-0.8 0.56,-1.79 0.56,-2.96 m 2.15,0 c 0,1.54 -0.28,2.85 -0.84,3.96 -0.56,1.1 -1.33,1.95 -2.31,2.54 -0.98,0.59 -2.08,0.89 -3.32,0.89 -1.24,0 -2.35,-0.3 -3.33,-0.89 -0.97,-0.59 -1.74,-1.44 -2.31,-2.55 -0.56,-1.1 -0.84,-2.42 -0.84,-3.95 0,-1.53 0.28,-2.85 0.84,-3.95 0.56,-1.1 1.33,-1.95 2.31,-2.54 C 40.89,0.3 42,0 43.25,0 c 1.25,0 2.35,0.3 3.32,0.89 0.98,0.59 1.74,1.44 2.31,2.54 0.56,1.1 0.84,2.42 0.84,3.95"
           id="path3" /><path
           class="cls-3"
           d="m 59.51,8.09 3.55,6.49 H 60.59 L 57.11,8.09 Z m -7.1,6.48 V 0.2 h 5.12 c 1.11,0 2.04,0.19 2.78,0.58 0.74,0.38 1.29,0.91 1.65,1.59 0.37,0.68 0.55,1.46 0.55,2.34 0,0.88 -0.18,1.65 -0.55,2.32 C 61.59,7.7 61.04,8.21 60.3,8.58 59.56,8.95 58.64,9.13 57.52,9.13 H 53.64 V 7.26 h 3.69 c 0.7,0 1.27,-0.1 1.72,-0.3 0.44,-0.2 0.77,-0.49 0.97,-0.88 0.21,-0.39 0.31,-0.85 0.31,-1.38 0,-0.53 -0.1,-1.01 -0.31,-1.41 C 59.81,2.89 59.49,2.59 59.04,2.37 58.6,2.16 58.02,2.05 57.3,2.05 h -2.72 v 12.52 z"
           id="path4" /></g><polygon
         class="cls-3"
         points="71.09,14.57 71.09,2.06 75.58,2.06 75.58,0.2 64.45,0.2 64.45,2.06 68.93,2.06 68.93,14.57 "
         id="polygon4" /><path
         class="cls-3"
         d="m 81.6,2.81 h 0.11 l 2.12,6.14 H 79.47 L 81.59,2.81 Z M 80.4,0.2 75.23,14.58 h 2.3 l 1.32,-3.81 h 5.62 l 1.31,3.81 h 2.3 L 82.91,0.2 Z"
         id="path5" /><polygon
         class="cls-3"
         points="90.15,0.2 90.15,14.57 92.32,14.57 92.32,4.03 92.45,4.03 99.76,14.57 101.75,14.57 101.75,0.2 99.6,0.2 99.6,10.75 99.47,10.75 92.16,0.2 "
         id="polygon5" /><polygon
         class="cls-3"
         points="110.84,14.57 110.84,2.06 115.33,2.06 115.33,0.2 104.2,0.2 104.2,2.06 108.68,2.06 108.68,14.57 "
         id="polygon6" /><path
         class="cls-3"
         d="M 8.55,10.41 V 2.78 l 3.88,4.7 -3.88,4.74 z M 14.8,7.52 18.67,2.78 v 9.44 z M 18.45,0.21 13.67,6.14 8.85,0.21 H 6.89 v 14.58 h 1.89 l 4.78,-5.93 4.81,5.93 H 20.4 V 0.21 Z"
         id="path6" /><path
         class="cls-2"
         d="M 8.55,10.41 V 2.78 l 3.88,4.7 -3.88,4.74 z M 14.8,7.52 18.67,2.78 v 9.44 z M 18.45,0.21 13.67,6.14 8.85,0.21 H 6.89 v 14.3 h 2.12 l 4.55,-5.65 4.58,5.65 H 20.4 V 0.21 Z"
         id="path7" /></g></g></svg>
