<?xml version="1.0" encoding="UTF-8" standalone="no"?>
<!-- Created with Inkscape (http://www.inkscape.org/) -->

<svg
   width="304.50195mm"
   height="292.62219mm"
   viewBox="0 0 304.50195 292.62219"
   version="1.1"
   id="svg1"
   xml:space="preserve"
   inkscape:version="1.3.2 (091e20e, 2023-11-25, custom)"
   sodipodi:docname="roundLogoImg.svg"
   xmlns:inkscape="http://www.inkscape.org/namespaces/inkscape"
   xmlns:sodipodi="http://sodipodi.sourceforge.net/DTD/sodipodi-0.dtd"
   xmlns="http://www.w3.org/2000/svg"
   xmlns:svg="http://www.w3.org/2000/svg"><sodipodi:namedview
     id="namedview1"
     pagecolor="#505050"
     bordercolor="#eeeeee"
     borderopacity="1"
     inkscape:showpageshadow="0"
     inkscape:pageopacity="0"
     inkscape:pagecheckerboard="0"
     inkscape:deskcolor="#505050"
     inkscape:document-units="mm"
     inkscape:zoom="0.17750246"
     inkscape:cx="670.41326"
     inkscape:cy="549.28818"
     inkscape:window-width="1920"
     inkscape:window-height="1009"
     inkscape:window-x="1912"
     inkscape:window-y="-8"
     inkscape:window-maximized="1"
     inkscape:current-layer="g5-8" /><defs
     id="defs1"><style
       id="style1">
      .cls-1 {
        fill: none;
      }

      .cls-1, .cls-2, .cls-3 {
        stroke-width: 0px;
      }

      .cls-4 {
        clip-path: url(#clippath);
      }

      .cls-2 {
        fill: #fff;
      }

      .cls-3 {
        fill: #2af598;
      }
    </style></defs><g
     inkscape:label="Ebene 1"
     inkscape:groupmode="layer"
     id="layer1"
     transform="translate(-502.17918,31.485408)"><g
       id="g13-8-9"
       transform="matrix(0.26458333,0,0,0.26458333,802.12081,534.25778)">
	
	
	
	
	
	
	
	
	
	
	
<path
   class="st2"
   d="m 14.723496,-1639.0275 c 0,-0.093 0,-0.093 0,-0.232 -0.241565,-0.1391 -0.386511,-0.2783 -0.579761,-0.4175 -2.850496,-28.4868 -7.923394,-56.4168 -15.170407,-83.5117 0.531445,0.3712 1.06289,0.7887 1.546031,1.1599 -6.570624,-25.9815 -15.122093,-51.2205 -25.702734,-75.6246 -28.118398,-65.2782 -70.295988,-125.0355 -126.146275,-178.7151 -105.90296,-101.6058 -234.36829,-155.8885 -381.86909,-161.3631 -4.20327,-0.1392 -8.30991,-0.2784 -12.46486,-0.3712 -4.20327,-0.093 -8.35822,-0.1392 -12.56149,-0.1392 -0.0966,0 -0.0966,0 -0.14493,0 h -0.28988 c -9.711,0 -19.37368,0.232 -28.93973,0.6495 -132.13715,5.7531 -248.57249,50.7566 -347.27673,134.0828 -6.66731,5.521 -13.23781,11.274 -19.76021,17.2126 -7.102,6.5418 -14.0592,13.1299 -20.8714,20.0429 -6.1357,6.1706 -12.1266,12.4804 -17.9242,18.9757 -92.81003,101.4667 -139.91563,222.4659 -140.20553,360.4923 v 1.067 c 0,0.093 0,0.093 0,0.1392 0,3.2941 0,6.5881 0.097,9.8358 0.1449,6.4026 0.3866,12.7124 0.6764,18.9758 0.097,0.2319 0.097,0.3711 0,0.5104 2.0292,41.7094 8.4548,81.795 19.422,120.2104 0.097,0.1391 0.097,0.3711 0.145,0.5103 0.2899,-0.2783 0.6763,-0.5103 0.9662,-0.7887 15.1704,-12.2019 31.3071,-25.1927 48.3618,-38.7866 l 1.0628,-0.8815 0.9663,-0.6959 c -8.2133,-35.0285 -12.5615,-71.5417 -12.5615,-108.9828 0,-273.7328 231.08304,-495.5957 516.08377,-495.5957 248.23423,0 455.54702,168.3225 504.874997,392.5516 l -150.206347,-109.4932 -18.26247,14.661 c -108.27032,86.2954 -195.37938,155.8421 -265.14392,211.9805 l -185.95827,-141.3667 -18.69728,14.8465 c -49.71448,39.7145 -94.8875,75.7637 -136.09887,108.658 -69.32971,55.4425 -127.06418,101.7451 -175.13601,140.3925 -14.3491,11.6452 -27.877,22.4554 -40.5834,32.6623 -0.097,-0.093 -0.097,-0.232 -0.097,-0.3711 l -48.0718,38.1833 c 0,0.2785 0.1449,0.5569 0.3865,0.7889 -0.4349,0.3711 -0.8213,0.6958 -1.2562,1.067 7.6819,18.3725 16.6199,36.3276 26.4758,53.8651 26.1858,45.885 59.9086,88.8473 101.02333,128.3761 111.84557,107.6374 248.71741,162.1983 406.94378,162.1983 158.22638,0 295.04993,-54.5609 406.94375,-162.1983 89.573037,-86.2491 143.780674,-187.8551 161.753253,-303.0084 l -0.724695,-0.5103 -53.676191,-39.1578 -0.7247,-0.5103 c -25.02634,251.1847 -245.480377,447.5764 -513.619727,447.5764 -200.83878,0 -374.91198,-110.1426 -460.2334,-271.0883 105.08161,-84.6717 238.08845,-191.2419 346.45536,-277.6301 l 138.03137,104.8536 48.21676,36.606 131.75065,100.1676 h 96.82005 l -181.70669,-137.9335 c 79.42722,-63.7473 163.92736,-131.2526 237.02552,-189.5715 l 98.17283,71.5417 60.923187,44.3539 v 0.093 l 0.57976,0.4175 58.79741,42.8693 0.28988,0.232 c 0,-0.093 0,-0.093 0,-0.1392 0.28988,-6.6809 0.3865,-13.4082 0.3865,-20.2283 -0.144935,-18.187 -0.869641,-35.91 -2.512291,-53.4939 z"
   id="path6-88-5-1"
   style="fill:#d8ffec;fill-opacity:1;stroke-width:4.73446" /><rect
   x="-665.57684"
   y="-1429.0415"
   class="st1"
   width="53.386307"
   height="51.266922"
   id="rect6-8-3-9"
   style="fill:#d8ffec;fill-opacity:1;stroke-width:4.73446" /><rect
   x="-737.99969"
   y="-1429.0415"
   class="st1"
   width="53.386307"
   height="51.266922"
   id="rect7-4-6-0"
   style="fill:#d8ffec;fill-opacity:1;stroke-width:4.73446" /><rect
   x="-665.57684"
   y="-1359.4948"
   class="st1"
   width="53.386307"
   height="51.266922"
   id="rect8-4-52-0"
   style="fill:#d8ffec;fill-opacity:1;stroke-width:4.73446" /><rect
   x="-737.99969"
   y="-1359.4948"
   class="st1"
   width="53.386307"
   height="51.266922"
   id="rect9-2-3-7"
   style="fill:#d8ffec;fill-opacity:1;stroke-width:4.73446" /><rect
   x="-193.21666"
   y="-1605.0659"
   class="st1"
   width="37.684452"
   height="36.188419"
   id="rect10-5-7-7"
   style="fill:#d8ffec;fill-opacity:1;stroke-width:4.73446" /><rect
   x="-244.33264"
   y="-1605.0659"
   class="st1"
   width="37.684452"
   height="36.188419"
   id="rect11-6-0-5"
   style="fill:#d8ffec;fill-opacity:1;stroke-width:4.73446" /><rect
   x="-193.21666"
   y="-1555.9797"
   class="st1"
   width="37.684452"
   height="36.188419"
   id="rect12-3-0-2"
   style="fill:#d8ffec;fill-opacity:1;stroke-width:4.73446" /><rect
   x="-244.33264"
   y="-1555.9797"
   class="st1"
   width="37.684452"
   height="36.188419"
   id="rect13-2-4-2"
   style="fill:#d8ffec;fill-opacity:1;stroke-width:4.73446" /></g></g><style
     type="text/css"
     id="style1-1">
	.st0{fill:#00015E;}
	.st1{fill:#FFFFFF;}
	.st2{fill:#2CF599;}
</style><style
     type="text/css"
     id="style1-4">
	.st0{fill:#00015E;}
	.st1{fill:#FFFFFF;}
	.st2{fill:#2CF599;}
</style><style
     type="text/css"
     id="style1-9">
	.st0{fill:#00015E;}
	.st1{fill:#FFFFFF;}
	.st2{fill:#2CF599;}
</style><style
     type="text/css"
     id="style1-93">
	.st0{fill:#00015E;}
	.st1{fill:#FFFFFF;}
	.st2{fill:#2CF599;}
</style></svg>
